<?xml version="1.0" encoding="utf-8"?>
<!-- Generator: Adobe Illustrator 16.0.3, SVG Export Plug-In . SVG Version: 6.00 Build 0)  -->
<!DOCTYPE svg PUBLIC "-//W3C//DTD SVG 1.1//EN" "http://www.w3.org/Graphics/SVG/1.1/DTD/svg11.dtd">
<svg version="1.1" id="Calque_1" xmlns="http://www.w3.org/2000/svg" xmlns:xlink="http://www.w3.org/1999/xlink" x="0px" y="0px"
	 width="25px" height="25px" viewBox="0 0 25 25" enable-background="new 0 0 25 25" xml:space="preserve">
<path fill="#1C8AFF" d="M1.137,23.611c-0.01,0.188,0.1,0.3,0.347,0.328c0.12,0.014,0.244,0.006,0.367,0.006
	c7.104,0,14.206,0,21.312,0c0.121,0,0.243,0.008,0.362-0.008c0.238-0.029,0.361-0.151,0.343-0.334
	c-0.021-0.17-0.132-0.278-0.351-0.291c-0.14-0.006-0.276-0.002-0.41-0.002c-3.537,0-7.075,0-10.611,0c-3.537,0-7.071,0-10.607,0
	c-0.124,0-0.246-0.008-0.369,0C1.266,23.332,1.146,23.43,1.137,23.611z"/>
<path fill="#1C8AFF" d="M24.148,24.366c-0.146-0.007-0.293-0.003-0.437-0.003c-3.737,0-7.481,0-11.219,0c-3.741,0-7.478,0-11.217,0
	c-0.13,0-0.26-0.008-0.39,0c-0.268,0.021-0.396,0.119-0.407,0.301c-0.007,0.188,0.108,0.299,0.369,0.328
	c0.127,0.013,0.259,0.007,0.387,0.007c7.513,0,15.021,0,22.539,0c0.129,0,0.261,0.006,0.385-0.009
	c0.256-0.03,0.382-0.151,0.359-0.334C24.499,24.486,24.381,24.378,24.148,24.366z"/>
<polygon fill="#00C8FF" points="1.452,5.907 6.913,3.321 12.373,0.736 12.466,0.692 12.557,0.736 18.018,3.321 23.477,5.907 
	23.751,6.035 24.453,6.035 18.459,3.018 12.466,0 6.472,3.018 0.479,6.035 1.18,6.035 "/>
<linearGradient id="SVGID_1_" gradientUnits="userSpaceOnUse" x1="629.2441" y1="-568.0776" x2="629.2441" y2="-545.9087" gradientTransform="matrix(1 0 0 -1 -616.7607 -545.0449)">
	<stop  offset="0" style="stop-color:#1C8AFF"/>
	<stop  offset="0.0578" style="stop-color:#1892FF"/>
	<stop  offset="0.2593" style="stop-color:#0EAAFF"/>
	<stop  offset="0.4737" style="stop-color:#06BBFF"/>
	<stop  offset="0.7081" style="stop-color:#01C5FF"/>
	<stop  offset="1" style="stop-color:#00C8FF"/>
</linearGradient>
<path fill="url(#SVGID_1_)" d="M14.697,23.033h8.705c0-2.072,0-14.929,0-16.998L17.941,3.45l-5.458-2.586L7.022,3.45l-5.46,2.585
	l0,0c0,0.794,0.02,14.813,0.022,16.998h8.684c-0.009-0.047-0.033-0.088-0.033-0.135V18.77c0-0.576,0.578-1.047,1.285-1.047h1.929
	c0.703,0,1.283,0.471,1.283,1.047v4.129C14.732,22.945,14.705,22.986,14.697,23.033z M7.446,15.898H4.191V12.63h3.255V15.898z
	 M7.446,11.096H4.191V7.827h3.255V11.096z M14.105,15.898h-3.252V12.63h3.252V15.898z M14.105,11.096h-3.252V7.827h3.252V11.096z
	 M17.516,7.827h3.256v3.269h-3.256V7.827z M17.516,12.63h3.256v3.269h-3.256V12.63z"/>
</svg>
